<?xml version="1.0" encoding="utf-8"?>
<!-- Generator: Adobe Illustrator 16.0.0, SVG Export Plug-In . SVG Version: 6.00 Build 0)  -->
<!DOCTYPE svg PUBLIC "-//W3C//DTD SVG 1.1//EN" "http://www.w3.org/Graphics/SVG/1.1/DTD/svg11.dtd">
<svg version="1.1" id="Layer_1" xmlns="http://www.w3.org/2000/svg" xmlns:xlink="http://www.w3.org/1999/xlink" x="0px" y="0px"
	 width="562.172px" height="120.882px" viewBox="0 0 562.172 120.882" enable-background="new 0 0 562.172 120.882"
	 xml:space="preserve">
<g>
	<path fill-rule="evenodd" clip-rule="evenodd" fill="#FFFFFF" d="M87.214,49.554l-0.027,0.208
		c-0.75,5.479-3.578,10.679-8.313,14.311c-4.737,3.633-10.491,5.014-15.977,4.316l-0.208-0.027
		c-5.479-0.75-10.678-3.578-14.31-8.314c-3.655-4.766-5.032-10.562-4.304-16.081c0.728-5.518,3.562-10.759,8.328-14.414
		c4.766-3.655,10.562-5.032,16.081-4.304c5.518,0.729,10.759,3.562,14.414,8.329C86.53,38.314,87.912,44.068,87.214,49.554
		L87.214,49.554z M94.275,57.173l5.009,0.661l1.708-12.938l-5.011-0.661c-0.296-3.531-1.212-7.037-2.768-10.346l4.01-3.075
		l-7.941-10.356l-4.01,3.075c-2.794-2.359-5.94-4.155-9.273-5.356l0.661-5.011l-12.938-1.708l-0.662,5.011
		c-3.531,0.296-7.038,1.213-10.347,2.768l-3.075-4.01l-10.356,7.941l3.075,4.009c-2.36,2.794-4.155,5.94-5.357,9.273l-5.011-0.661
		l-1.708,12.938l5.011,0.661c0.296,3.532,1.213,7.038,2.768,10.347l-4.009,3.075l7.941,10.355l4.01-3.074
		c2.793,2.361,5.941,4.155,9.274,5.357l-0.661,5.009l12.938,1.709l0.661-5.011c3.531-0.296,7.037-1.213,10.346-2.768l3.075,4.01
		l10.356-7.941l-3.075-4.01C91.279,63.654,93.073,60.507,94.275,57.173L94.275,57.173z"/>
	<path fill-rule="evenodd" clip-rule="evenodd" fill="#FFFFFF" d="M36.032,15.416l0.031,0.116c0.865,3.224,0.762,6.605-0.235,9.739
		l2.549,1.472l-3.749,6.493l-2.547-1.47c-2.213,2.432-5.083,4.205-8.316,5.072l-0.116,0.031c-0.237,0.063-0.474,0.122-0.712,0.175
		v2.942h-7.498v-2.94c-1.734-0.383-3.416-1.032-4.979-1.935c-1.569-0.906-2.969-2.037-4.165-3.345l-2.547,1.47L0,26.743l2.549-1.472
		c-0.08-0.251-0.154-0.504-0.223-0.76c-0.867-3.236-0.773-6.642,0.225-9.795L0,13.243L3.749,6.75l2.548,1.471
		c2.229-2.444,5.121-4.218,8.373-5.089c0.256-0.068,0.513-0.13,0.77-0.187V0h7.498v2.947c1.735,0.38,3.417,1.026,4.979,1.928
		c1.568,0.905,2.97,2.035,4.168,3.343l2.544-1.469l3.749,6.493l-2.549,1.472C35.901,14.946,35.969,15.18,36.032,15.416
		L36.032,15.416z M31.241,16.701l0.031,0.116c0.808,3.073,0.451,6.455-1.264,9.424c-1.714,2.97-4.464,4.969-7.529,5.806
		l-0.116,0.031c-3.073,0.808-6.454,0.451-9.423-1.263c-2.988-1.726-4.995-4.499-5.822-7.587s-0.477-6.493,1.249-9.482
		c1.725-2.988,4.499-4.994,7.587-5.822c3.089-0.828,6.494-0.477,9.482,1.249C28.406,10.886,30.405,13.636,31.241,16.701
		L31.241,16.701z"/>
	<path fill-rule="evenodd" clip-rule="evenodd" fill="#FFFFFF" d="M94.08,102.032v18.85l-24.74-18.85H32.006
		c-9.301,0-16.887-7.586-16.887-16.887v-5.5l0.024-0.025V45.53l-0.024-0.025v-0.559h0v-0.763h6.402v14.396v7.992v14.396l0,0v1.264
		l-0.025,0.024v2.891c0,5.78,4.729,10.509,10.509,10.509h39.487l16.208,12.35v-12.35h11.56c5.779,0,10.508-4.729,10.508-10.509
		V67.421v-2.057v-5.578v-2.057V40.005c0-4.467-2.825-8.306-6.776-9.819l-5.42-7.068h1.688c0.113,0,0.225,0.002,0.337,0.004
		l-0.003-0.004c9.146,0.179,16.553,7.694,16.553,16.882l0,22.575l0,22.575c0,9.188-7.407,16.703-16.553,16.882l0.003-0.004
		c-0.112,0.002-0.224,0.004-0.337,0.004H94.08L94.08,102.032z"/>
	<path fill="#FFFFFF" d="M160.077,34.403c17.506,0,26.259,8.921,26.259,26.784c0,2.38-0.168,4.76-0.506,7.14h-38.272
		c0,8.136,5.96,12.202,17.899,12.202c5.829,0,11.639-0.562,17.467-1.649v11.526c-5.098,1.106-11.282,1.649-18.555,1.649
		c-20.917,0-31.356-9.82-31.356-29.481C133.013,43.793,142.028,34.403,160.077,34.403L160.077,34.403z M535.913,34.403
		c17.507,0,26.259,8.921,26.259,26.784c0,2.38-0.168,4.76-0.506,7.14h-38.271c0,8.136,5.959,12.202,17.898,12.202
		c5.828,0,11.639-0.562,17.468-1.649v11.526c-5.099,1.106-11.282,1.649-18.556,1.649c-20.916,0-31.356-9.82-31.356-29.481
		C508.849,43.793,517.865,34.403,535.913,34.403L535.913,34.403z M523.395,58.224h24.608v-0.43c0-7.985-4.029-11.977-12.09-11.977
		C528.229,45.817,524.051,49.958,523.395,58.224L523.395,58.224z M488.804,47.467c-2.382-0.882-5.773-1.312-10.159-1.312
		c-10.063,0-15.106,5.548-15.106,16.624c0,10.74,4.35,16.101,13.026,16.101c4.161,0,8.247-0.993,12.239-2.962V47.467L488.804,47.467
		z M503.348,87.669c0,16.831-10.121,25.247-30.363,25.247c-7.103,0-13.401-0.92-18.892-2.738V98.652
		c5.604,1.818,11.938,2.735,19.004,2.735c10.478,0,15.707-4.386,15.707-13.175c-4.312,1.837-8.979,2.735-13.944,2.735
		c-17.132,0-25.697-9.352-25.697-28.057c0-18.987,9.973-28.489,29.914-28.489c6.71,0,14.807,0.788,24.271,2.362V87.669
		L503.348,87.669z M392.324,74.101c0-11.452,8.342-17.188,25.041-17.188c3.917,0,7.833,0.375,11.752,1.105V53.67
		c0-5.153-3.729-7.741-11.151-7.741c-6.299,0-13.289,0.919-20.975,2.738V37.139c7.686-1.819,14.676-2.736,20.975-2.736
		c17.129,0,25.695,6.335,25.695,18.987v38.665h-8.453l-5.173-5.154c-5.005,3.431-10.533,5.154-16.568,5.154
		C399.372,92.055,392.324,86.076,392.324,74.101L392.324,74.101z M429.117,67.896c-3.674-0.732-7.591-1.106-11.752-1.106
		c-6.991,0-10.496,2.38-10.496,7.142c0,5.135,2.924,7.684,8.79,7.684c4.836,0,9.315-1.5,13.458-4.499V67.896L429.117,67.896z
		 M372.279,47.467c-2.382-0.882-5.773-1.312-10.159-1.312c-10.064,0-15.106,5.548-15.106,16.624c0,10.74,4.349,16.101,13.026,16.101
		c4.161,0,8.246-0.993,12.239-2.962V47.467L372.279,47.467z M386.823,87.669c0,16.831-10.121,25.247-30.363,25.247
		c-7.103,0-13.401-0.92-18.893-2.738V98.652c5.604,1.818,11.939,2.735,19.005,2.735c10.478,0,15.707-4.386,15.707-13.175
		c-4.312,1.837-8.979,2.735-13.945,2.735c-17.131,0-25.696-9.352-25.696-28.057c0-18.987,9.972-28.489,29.913-28.489
		c6.711,0,14.808,0.788,24.272,2.362V87.669L386.823,87.669z M303.531,92.055V34.403h11.264l1.817,7.348
		c5.042-4.892,10.385-7.348,16.025-7.348v11.752c-5.417,0-10.271,2.249-14.544,6.748v39.152H303.531L303.531,92.055z
		 M271.835,34.403c17.465,0,26.196,8.921,26.196,26.784c0,2.38-0.169,4.76-0.505,7.14h-38.18c0,8.136,5.945,12.202,17.856,12.202
		c5.813,0,11.611-0.562,17.425-1.649v11.526c-5.086,1.106-11.255,1.649-18.51,1.649c-20.868,0-31.282-9.82-31.282-29.481
		C244.835,43.793,253.83,34.403,271.835,34.403L271.835,34.403z M259.346,58.224h24.55v-0.43c0-7.985-4.021-11.977-12.062-11.977
		C264.168,45.817,260.001,49.958,259.346,58.224L259.346,58.224z M185.534,34.403h15.369l14,40.296l14.564-40.296h15.369
		l-23.447,57.652h-13.832L185.534,34.403L185.534,34.403z M147.558,58.224h24.609v-0.43c0-7.985-4.03-11.977-12.09-11.977
		C152.393,45.817,148.214,49.958,147.558,58.224L147.558,58.224z"/>
</g>
</svg>
